<svg height="27" viewBox="0 0 308 27" width="308" xmlns="http://www.w3.org/2000/svg" xmlns:xlink="http://www.w3.org/1999/xlink"><defs><path id="a" d="m204.152 6.964h-1.488v3.036h-1.632v-7.92h3.492c.904 0 1.61.214 2.118.642s.762 1.03.762 1.806c0 .568-.14 1.044-.42 1.428s-.68.66-1.2.828l2.088 3.216h-1.86zm-1.488-1.26h1.644c.48 0 .834-.094 1.062-.282s.342-.478.342-.87-.114-.682-.342-.87-.582-.282-1.062-.282h-1.644zm11.964 1.272c0 .224-.016.44-.048.648h-4.248c.168.848.668 1.272 1.5 1.272.344 0 .628-.064.852-.192s.38-.312.468-.552l1.344.492c-.192.48-.514.846-.966 1.098s-1.018.378-1.698.378c-.992 0-1.76-.274-2.304-.822s-.816-1.314-.816-2.298.264-1.75.792-2.298 1.272-.822 2.232-.822c.928 0 1.642.268 2.142.804s.75 1.3.75 2.292zm-2.904-1.884c-.4 0-.718.116-.954.348s-.386.576-.45 1.032h2.796c-.064-.448-.216-.79-.456-1.026s-.552-.354-.936-.354zm7.932 3.78c.656 0 1.162.144 1.518.432s.534.7.534 1.236c0 .64-.296 1.14-.888 1.5s-1.372.54-2.34.54c-1 0-1.742-.132-2.226-.396s-.726-.624-.726-1.08c0-.272.092-.508.276-.708s.456-.344.816-.432c-.272-.112-.488-.27-.648-.474s-.24-.446-.24-.726c0-.288.084-.536.252-.744s.4-.364.696-.468c-.304-.176-.536-.402-.696-.678s-.24-.594-.24-.954c0-.632.246-1.13.738-1.494s1.162-.546 2.01-.546c.432 0 .836.052 1.212.156.104-.472.306-.842.606-1.11s.706-.386 1.218-.354l.216 1.176c-.056-.008-.14-.012-.252-.012-.296 0-.542.052-.738.156s-.334.244-.414.42c.296.176.522.4.678.672s.234.584.234.936c0 .624-.246 1.118-.738 1.482s-1.166.546-2.022.546c-.392 0-.752-.036-1.08-.108-.312.08-.468.26-.468.54 0 .16.06.282.18.366s.288.126.504.126zm-1.164-3.96c-.32 0-.582.092-.786.276s-.306.424-.306.72c0 .304.102.548.306.732s.466.276.786.276c.328 0 .594-.092.798-.276s.306-.428.306-.732c0-.296-.102-.536-.306-.72s-.47-.276-.798-.276zm.12 6.54c.56 0 .992-.07 1.296-.21s.456-.318.456-.534c0-.168-.07-.294-.21-.378s-.37-.126-.69-.126h-1.632c-.664 0-.996.18-.996.54 0 .224.148.398.444.522s.74.186 1.332.186zm4.944-8.316c-.68 0-1.02-.292-1.02-.876 0-.592.34-.888 1.02-.888s1.02.296 1.02.888c0 .584-.34.876-1.02.876zm.816 6.864h-1.644v-6h1.644zm4.5-6.12c.968 0 1.722.276 2.262.828s.81 1.316.81 2.292-.27 1.74-.81 2.292-1.294.828-2.262.828-1.722-.276-2.262-.828-.81-1.316-.81-2.292.27-1.74.81-2.292 1.294-.828 2.262-.828zm0 1.224c-.464 0-.818.158-1.062.474s-.366.79-.366 1.422.122 1.106.366 1.422.598.474 1.062.474.818-.158 1.062-.474.366-.79.366-1.422-.122-1.106-.366-1.422-.598-.474-1.062-.474zm8.064-1.224c.648 0 1.17.188 1.566.564s.594.916.594 1.62v3.936h-1.644v-3.456c0-.912-.356-1.368-1.068-1.368-.384 0-.71.136-.978.408s-.402.688-.402 1.248v3.168h-1.644v-6h1.476l.048 1.068c.2-.392.476-.688.828-.888s.76-.3 1.224-.3zm9.336 5.124c.168 0 .304-.016.408-.048l-.12.996c-.224.112-.484.168-.78.168-.768 0-1.228-.3-1.38-.9-.176.296-.448.52-.816.672s-.804.228-1.308.228c-.584 0-1.04-.132-1.368-.396s-.492-.644-.492-1.14c0-.976.78-1.608 2.34-1.896l1.44-.276v-.288c0-.32-.09-.574-.27-.762s-.43-.282-.75-.282c-.368 0-.668.08-.9.24s-.392.42-.48.78l-1.308-.552c.128-.52.416-.928.864-1.224s1.032-.444 1.752-.444c.856 0 1.524.186 2.004.558s.72.922.72 1.65v2.46c0 .16.036.276.108.348s.184.108.336.108zm-3.48 0c.352 0 .674-.086.966-.258s.438-.406.438-.702v-.624l-1.284.288c-.272.064-.474.15-.606.258s-.198.258-.198.45.06.338.18.438.288.15.504.15zm6.504-.912c0 .288.042.488.126.6s.238.168.462.168c.136 0 .254-.01.354-.03s.218-.054.354-.102l-.144 1.14c-.128.08-.296.142-.504.186s-.412.066-.612.066c-.584 0-1.01-.142-1.278-.426s-.402-.738-.402-1.362v-6.96h1.644zm9.108-6.012c1.24 0 2.2.344 2.88 1.032s1.02 1.664 1.02 2.928-.34 2.24-1.02 2.928-1.64 1.032-2.88 1.032h-3.06v-7.92zm-.084 6.6c.752 0 1.318-.226 1.698-.678s.57-1.106.57-1.962-.19-1.51-.57-1.962-.946-.678-1.698-.678h-1.32v5.28zm10.968.324c.168 0 .304-.016.408-.048l-.12.996c-.224.112-.484.168-.78.168-.768 0-1.228-.3-1.38-.9-.176.296-.448.52-.816.672s-.804.228-1.308.228c-.584 0-1.04-.132-1.368-.396s-.492-.644-.492-1.14c0-.976.78-1.608 2.34-1.896l1.44-.276v-.288c0-.32-.09-.574-.27-.762s-.43-.282-.75-.282c-.368 0-.668.08-.9.24s-.392.42-.48.78l-1.308-.552c.128-.52.416-.928.864-1.224s1.032-.444 1.752-.444c.856 0 1.524.186 2.004.558s.72.922.72 1.65v2.46c0 .16.036.276.108.348s.184.108.336.108zm-3.48 0c.352 0 .674-.086.966-.258s.438-.406.438-.702v-.624l-1.284.288c-.272.064-.474.15-.606.258s-.198.258-.198.45.06.338.18.438.288.15.504.15zm9 .624c-.192.152-.434.272-.726.36s-.598.132-.918.132c-1.336 0-2.004-.604-2.004-1.812v-3.084h-1.092v-1.224h1.092v-1.38l1.644-.456v1.836h1.944v1.224h-1.944v2.82c0 .552.276.828.828.828.352 0 .66-.112.924-.336zm6.516-.624c.168 0 .304-.016.408-.048l-.12.996c-.224.112-.484.168-.78.168-.768 0-1.228-.3-1.38-.9-.176.296-.448.52-.816.672s-.804.228-1.308.228c-.584 0-1.04-.132-1.368-.396s-.492-.644-.492-1.14c0-.976.78-1.608 2.34-1.896l1.44-.276v-.288c0-.32-.09-.574-.27-.762s-.43-.282-.75-.282c-.368 0-.668.08-.9.24s-.392.42-.48.78l-1.308-.552c.128-.52.416-.928.864-1.224s1.032-.444 1.752-.444c.856 0 1.524.186 2.004.558s.72.922.72 1.65v2.46c0 .16.036.276.108.348s.184.108.336.108zm-3.48 0c.352 0 .674-.086.966-.258s.438-.406.438-.702v-.624l-1.284.288c-.272.064-.474.15-.606.258s-.198.258-.198.45.06.338.18.438.288.15.504.15zm-73.488 7.076c.92 0 1.636.222 2.148.666s.768 1.07.768 1.878c0 .784-.256 1.396-.768 1.836s-1.228.66-2.148.66h-1.668v2.88h-1.656v-7.92zm-.252 3.756c.512 0 .888-.102 1.128-.306s.36-.51.36-.918-.12-.712-.36-.912-.616-.3-1.128-.3h-1.416v2.436zm7.908-1.956c.28 0 .496.044.648.132l-.204 1.44c-.184-.12-.436-.18-.756-.18-.392 0-.73.142-1.014.426s-.426.682-.426 1.194v3.108h-1.644v-6h1.428l.108 1.176c.328-.864.948-1.296 1.86-1.296zm4.428 0c.968 0 1.722.276 2.262.828s.81 1.316.81 2.292-.27 1.74-.81 2.292-1.294.828-2.262.828-1.722-.276-2.262-.828-.81-1.316-.81-2.292.27-1.74.81-2.292 1.294-.828 2.262-.828zm0 1.224c-.464 0-.818.158-1.062.474s-.366.79-.366 1.422.122 1.106.366 1.422.598.474 1.062.474.818-.158 1.062-.474.366-.79.366-1.422-.122-1.106-.366-1.422-.598-.474-1.062-.474zm7.236-1.224c.792 0 1.408.16 1.848.48s.74.748.9 1.284l-1.536.552c-.144-.728-.532-1.092-1.164-1.092-.472 0-.834.162-1.086.486s-.378.798-.378 1.422.128 1.094.384 1.41.612.474 1.068.474c.704 0 1.12-.356 1.248-1.068l1.488.48c-.128.552-.426.992-.894 1.32s-1.074.492-1.818.492c-.992 0-1.76-.274-2.304-.822s-.816-1.314-.816-2.298.27-1.75.81-2.298 1.29-.822 2.25-.822zm9.684 3.096c0 .224-.016.44-.048.648h-4.248c.168.848.668 1.272 1.5 1.272.344 0 .628-.064.852-.192s.38-.312.468-.552l1.344.492c-.192.48-.514.846-.966 1.098s-1.018.378-1.698.378c-.992 0-1.76-.274-2.304-.822s-.816-1.314-.816-2.298.264-1.75.792-2.298 1.272-.822 2.232-.822c.928 0 1.642.268 2.142.804s.75 1.3.75 2.292zm-2.904-1.884c-.4 0-.718.116-.954.348s-.386.576-.45 1.032h2.796c-.064-.448-.216-.79-.456-1.026s-.552-.354-.936-.354zm6.612 5.028c-1.336 0-2.264-.384-2.784-1.152l.96-.984c.16.344.39.586.69.726s.67.21 1.11.21c.352 0 .624-.048.816-.144s.288-.228.288-.396c0-.136-.09-.252-.27-.348s-.49-.188-.93-.276c-.92-.184-1.566-.426-1.938-.726s-.558-.706-.558-1.218c0-.336.104-.652.312-.948s.516-.534.924-.714.896-.27 1.464-.27c.672 0 1.216.102 1.632.306s.764.526 1.044.966l-1.02.864c-.176-.32-.394-.556-.654-.708s-.586-.228-.978-.228c-.328 0-.59.056-.786.168s-.294.248-.294.408c0 .168.096.308.288.42s.532.216 1.02.312c.872.176 1.49.406 1.854.69s.546.678.546 1.182c0 .56-.238 1.01-.714 1.35s-1.15.51-2.022.51zm6.372 0c-1.336 0-2.264-.384-2.784-1.152l.96-.984c.16.344.39.586.69.726s.67.21 1.11.21c.352 0 .624-.048.816-.144s.288-.228.288-.396c0-.136-.09-.252-.27-.348s-.49-.188-.93-.276c-.92-.184-1.566-.426-1.938-.726s-.558-.706-.558-1.218c0-.336.104-.652.312-.948s.516-.534.924-.714.896-.27 1.464-.27c.672 0 1.216.102 1.632.306s.764.526 1.044.966l-1.02.864c-.176-.32-.394-.556-.654-.708s-.586-.228-.978-.228c-.328 0-.59.056-.786.168s-.294.248-.294.408c0 .168.096.308.288.42s.532.216 1.02.312c.872.176 1.49.406 1.854.69s.546.678.546 1.182c0 .56-.238 1.01-.714 1.35s-1.15.51-2.022.51zm4.872-6.984c-.68 0-1.02-.292-1.02-.876 0-.592.34-.888 1.02-.888s1.02.296 1.02.888c0 .584-.34.876-1.02.876zm.816 6.864h-1.644v-6h1.644zm5.316-6.12c.648 0 1.17.188 1.566.564s.594.916.594 1.62v3.936h-1.644v-3.456c0-.912-.356-1.368-1.068-1.368-.384 0-.71.136-.978.408s-.402.688-.402 1.248v3.168h-1.644v-6h1.476l.048 1.068c.2-.392.476-.688.828-.888s.76-.3 1.224-.3zm7.5 4.992c.656 0 1.162.144 1.518.432s.534.7.534 1.236c0 .64-.296 1.14-.888 1.5s-1.372.54-2.34.54c-1 0-1.742-.132-2.226-.396s-.726-.624-.726-1.08c0-.272.092-.508.276-.708s.456-.344.816-.432c-.272-.112-.488-.27-.648-.474s-.24-.446-.24-.726c0-.288.084-.536.252-.744s.4-.364.696-.468c-.304-.176-.536-.402-.696-.678s-.24-.594-.24-.954c0-.632.246-1.13.738-1.494s1.162-.546 2.01-.546c.432 0 .836.052 1.212.156.104-.472.306-.842.606-1.11s.706-.386 1.218-.354l.216 1.176c-.056-.008-.14-.012-.252-.012-.296 0-.542.052-.738.156s-.334.244-.414.42c.296.176.522.4.678.672s.234.584.234.936c0 .624-.246 1.118-.738 1.482s-1.166.546-2.022.546c-.392 0-.752-.036-1.08-.108-.312.08-.468.26-.468.54 0 .16.06.282.18.366s.288.126.504.126zm-1.164-3.96c-.32 0-.582.092-.786.276s-.306.424-.306.72c0 .304.102.548.306.732s.466.276.786.276c.328 0 .594-.092.798-.276s.306-.428.306-.732c0-.296-.102-.536-.306-.72s-.47-.276-.798-.276zm.12 6.54c.56 0 .992-.07 1.296-.21s.456-.318.456-.534c0-.168-.07-.294-.21-.378s-.37-.126-.69-.126h-1.632c-.664 0-.996.18-.996.54 0 .224.148.398.444.522s.74.186 1.332.186zm14.736-3.636c-.232.76-.644 1.334-1.236 1.722s-1.3.582-2.124.582c-.776 0-1.452-.164-2.028-.492s-1.018-.798-1.326-1.41-.462-1.338-.462-2.178.154-1.566.462-2.178.748-1.082 1.32-1.41 1.242-.492 2.01-.492c.824 0 1.522.172 2.094.516s.966.856 1.182 1.536l-1.5.636c-.128-.472-.328-.812-.6-1.02s-.64-.312-1.104-.312c-.672 0-1.198.236-1.578.708s-.57 1.144-.57 2.016.184 1.544.552 2.016.888.708 1.56.708c.968 0 1.576-.468 1.824-1.404zm6.852-.84c0 .224-.016.44-.048.648h-4.248c.168.848.668 1.272 1.5 1.272.344 0 .628-.064.852-.192s.38-.312.468-.552l1.344.492c-.192.48-.514.846-.966 1.098s-1.018.378-1.698.378c-.992 0-1.76-.274-2.304-.822s-.816-1.314-.816-2.298.264-1.75.792-2.298 1.272-.822 2.232-.822c.928 0 1.642.268 2.142.804s.75 1.3.75 2.292zm-2.904-1.884c-.4 0-.718.116-.954.348s-.386.576-.45 1.032h2.796c-.064-.448-.216-.79-.456-1.026s-.552-.354-.936-.354zm7.86-1.212c.648 0 1.17.188 1.566.564s.594.916.594 1.62v3.936h-1.644v-3.456c0-.912-.356-1.368-1.068-1.368-.384 0-.71.136-.978.408s-.402.688-.402 1.248v3.168h-1.644v-6h1.476l.048 1.068c.2-.392.476-.688.828-.888s.76-.3 1.224-.3zm7.968 5.748c-.192.152-.434.272-.726.36s-.598.132-.918.132c-1.336 0-2.004-.604-2.004-1.812v-3.084h-1.092v-1.224h1.092v-1.38l1.644-.456v1.836h1.944v1.224h-1.944v2.82c0 .552.276.828.828.828.352 0 .66-.112.924-.336zm4.428-5.748c.28 0 .496.044.648.132l-.204 1.44c-.184-.12-.436-.18-.756-.18-.392 0-.73.142-1.014.426s-.426.682-.426 1.194v3.108h-1.644v-6h1.428l.108 1.176c.328-.864.948-1.296 1.86-1.296zm7.272 3.096c0 .224-.016.44-.048.648h-4.248c.168.848.668 1.272 1.5 1.272.344 0 .628-.064.852-.192s.38-.312.468-.552l1.344.492c-.192.48-.514.846-.966 1.098s-1.018.378-1.698.378c-.992 0-1.76-.274-2.304-.822s-.816-1.314-.816-2.298.264-1.75.792-2.298 1.272-.822 2.232-.822c.928 0 1.642.268 2.142.804s.75 1.3.75 2.292zm-2.904-1.884c-.4 0-.718.116-.954.348s-.386.576-.45 1.032h2.796c-.064-.448-.216-.79-.456-1.026s-.552-.354-.936-.354z"/><mask id="b" fill="#fff"><path d="m.07.083h6.37v4.017h-6.37z" fill="#fff" fill-rule="evenodd"/></mask><mask id="c" fill="#fff"><path d="m0 26.192h179.963v-25.587h-179.963z" fill="#fff" fill-rule="evenodd"/></mask></defs><g fill="none" fill-rule="evenodd"><path d="m190 26h1v-26h-1z" fill="#a1a4b1"/><g transform="translate(0 -.605)"><g fill="#fff"><path d="m167.777 19.937c-.03.29-.062.581-.096.871h9.878c.864-1.198 1.525-2.554 1.934-4.017h-6.555c-1.081 1.779-2.975 3.001-5.161 3.146m-12.592-3.147c.408 1.464 1.07 2.82 1.934 4.018h2.501c-.826-1.21-1.458-2.562-1.847-4.017h-2.588z"/><path d="m.07 4.1h6.213c.103-.654.157-1.325.157-2.008 0-.684-.054-1.355-.157-2.01h-6.213c.2.635.31 1.31.31 2.01s-.11 1.375-.31 2.008" mask="url(#b)" transform="translate(173.523 11.248)"/><path d="m154.872 11.33c-.104.655-.158 1.326-.158 2.01 0 .683.054 1.354.158 2.008h2.604c-.097-.647-.155-1.308-.155-1.983 0-.693.06-1.37.162-2.034h-2.611zm21.476-6.901c-2.29-2.352-5.48-3.812-9.01-3.812-.055 0-.11.004-.166.005.214 1.265.39 2.535.535 3.807h8.64zm-9.241-3.806c-3.436.063-6.537 1.506-8.778 3.806h2.465c1.674-1.822 3.853-3.165 6.313-3.806m-9.989 5.248c-.863 1.199-1.525 2.554-1.933 4.018h2.602c.395-1.457 1.033-2.81 1.866-4.018zm22.375 4.018c-.409-1.464-1.07-2.82-1.934-4.018h-9.702c.027.294.052.588.076.883 2.12.192 3.95 1.398 5.005 3.135zm-18.741 12.361h-2.423c2.291 2.352 5.481 3.812 9.01 3.812 3.528 0 6.718-1.46 9.009-3.812h-8.852c-.175 1.268-.381 2.533-.626 3.793-2.384-.67-4.492-2.005-6.118-3.793z"/></g><path d="m167.107.638.114-.003-.005-.03c-.037.009-.072.023-.11.033z" fill="#37b34a"/><path d="m161.739 16.79h-3.966c.389 1.456 1.021 2.809 1.848 4.018h8.06c.034-.29.065-.58.096-.87-.145.01-.29.016-.438.016-2.37 0-4.446-1.266-5.6-3.163zm-4.256-5.46c-.102.664-.162 1.342-.162 2.035 0 .675.058 1.336.155 1.983h3.608c-.2-.633-.309-1.308-.309-2.009 0-.7.11-1.375.31-2.008h-3.602zm10.224-6.901c-.146-1.272-.321-2.542-.535-3.807l-.065.001c-2.46.64-4.64 1.984-6.313 3.806zm.226 2.325c-.024-.295-.049-.589-.076-.883h-8.204c-.833 1.209-1.471 2.561-1.866 4.018h3.952c1.154-1.898 3.23-3.164 5.6-3.164.2 0 .398.011.594.029zm-.437 15.496h-6.744c1.626 1.788 3.734 3.123 6.118 3.793.245-1.26.45-2.525.626-3.793z" fill="#9bc7ed"/><path d="m167.648 10.706v2.375h2.479c-.023-.856-.158-1.666-.376-2.375zm0 2.891v2.376h2.103c.218-.71.353-1.52.376-2.376zm-.511 2.376v-2.376h-2.48c.024.856.159 1.666.377 2.376zm0 .515h-1.923c.455 1.155 1.148 1.954 1.923 2.1zm0-3.407v-2.375h-2.103c-.218.71-.353 1.519-.376 2.375zm2.996 3.407c-.272.76-.642 1.395-1.08 1.85.274-.092.539-.207.791-.342.67-.374 1.248-.89 1.698-1.508zm-2.996-6.298v-2.099h-.008c-.772.15-1.461.948-1.915 2.1h1.923zm.511 6.298v2.1c.775-.146 1.468-.945 1.923-2.1zm-1.915 1.851c-.439-.456-.809-1.09-1.081-1.851h-1.454c.632.852 1.514 1.506 2.535 1.85m-1.245-2.365c-.2-.715-.321-1.519-.341-2.376h-1.98c.04.862.29 1.67.695 2.376zm6.15-2.376c-.02.857-.14 1.66-.34 2.376h1.575c.399-.707.64-1.515.677-2.376zm-.341-2.891c.2.714.321 1.518.341 2.375h1.91c-.047-.863-.301-1.67-.711-2.375zm-2.649-2.606v2.09h1.923c-.443-1.125-1.113-1.912-1.864-2.086l-.059-.005zm1.472.31c.409.45.755 1.058 1.013 1.78h1.363c-.602-.802-1.425-1.426-2.377-1.78m-5.921 1.78h1.454c.272-.76.642-1.395 1.08-1.85-1.02.344-1.903.998-2.534 1.85m.949 2.891c.02-.857.14-1.66.341-2.375h-1.626c-.406.705-.654 1.513-.696 2.375h1.98z" fill="#dd1c4d"/><path d="m0 25.78h5.25v-24.048h-5.25zm7.602-12.024c0-6.837 5.114-12.436 12.443-12.436 4.5 0 7.193 1.511 9.409 3.71l-3.34 3.882c-1.842-1.683-3.717-2.714-6.103-2.714-4.023 0-6.92 3.367-6.92 7.49v.068c0 4.123 2.83 7.558 6.92 7.558 2.727 0 4.398-1.1 6.273-2.817l3.34 3.401c-2.454 2.645-5.181 4.294-9.784 4.294-7.022 0-12.238-5.462-12.238-12.367z" fill="#fff" mask="url(#c)"/><path d="m29.523 13.825v-.069c0-6.837 5.284-12.436 12.51-12.436 4.296 0 6.887 1.168 9.376 3.298l-3.307 4.02c-1.841-1.547-3.477-2.44-6.239-2.44-3.818 0-6.852 3.401-6.852 7.49v.068c0 4.397 3 7.627 7.227 7.627 1.91 0 3.614-.481 4.944-1.443v-3.436h-5.285v-4.569h10.364v10.445c-2.455 2.096-5.83 3.813-10.193 3.813-7.432 0-12.545-5.256-12.545-12.367m24.17-.001v-.069c0-6.837 5.114-12.436 12.443-12.436 4.5 0 7.193 1.511 9.409 3.71l-3.34 3.882c-1.842-1.683-3.717-2.714-6.103-2.714-4.023 0-6.92 3.367-6.92 7.49v.068c0 4.123 2.83 7.558 6.92 7.558 2.727 0 4.398-1.1 6.273-2.817l3.34 3.401c-2.454 2.645-5.181 4.294-9.784 4.294-7.022 0-12.238-5.462-12.238-12.367m45.033 1.889-3.17-7.798-3.17 7.798zm-5.522-14.154h4.84l10.227 24.22h-5.488l-2.182-5.394h-10.09l-2.182 5.394h-5.353zm26.761 11.852c2.557 0 4.022-1.374 4.022-3.4v-.07c0-2.267-1.568-3.435-4.125-3.435h-5.215v6.905zm-10.568-11.68h10.909c3.034 0 5.386.859 6.954 2.439 1.33 1.34 2.045 3.23 2.045 5.497v.069c0 3.881-2.079 6.32-5.113 7.454l5.83 8.59h-6.137l-5.113-7.696h-4.125v7.695h-5.25v-24.048zm21.033 12.093v-.069c0-6.837 5.285-12.436 12.512-12.436 4.295 0 6.886 1.168 9.375 3.298l-3.307 4.02c-1.841-1.547-3.477-2.44-6.239-2.44-3.818 0-6.852 3.401-6.852 7.49v.068c0 4.397 3 7.627 7.227 7.627 1.91 0 3.614-.481 4.943-1.443v-3.436h-5.283v-4.569h10.363v10.445c-2.455 2.096-5.83 3.813-10.193 3.813-7.432 0-12.545-5.256-12.545-12.367" fill="#fff" mask="url(#c)"/></g><g fill-rule="nonzero"><use fill="#000" xlink:href="#a"/><use fill="#fff" xlink:href="#a"/></g></g></svg>