<?xml version="1.0" encoding="utf-8"?>
<!-- Generator: Adobe Illustrator 22.1.0, SVG Export Plug-In . SVG Version: 6.00 Build 0)  -->
<svg version="1.1" id="White" xmlns="http://www.w3.org/2000/svg" xmlns:xlink="http://www.w3.org/1999/xlink" x="0px" y="0px"
	 viewBox="0 0 697.8 149" style="enable-background:new 0 0 697.8 149;" xml:space="preserve">
<style type="text/css">
	.st0{fill:#FFFFFF;}
	.st1{fill:#37B34A;}
	.st2{fill:#3075BA;}
	.st3{fill:#DD1C4D;}
</style>
<g>
	<g>
		<path class="st0" d="M626.3,112.5c-0.2,1.7-0.4,3.4-0.6,5.1h58c5.1-7,9-14.9,11.3-23.4h-38.5C650.2,104.6,639.1,111.7,626.3,112.5
			z"/>
		<path class="st0" d="M552.4,94.2c2.4,8.5,6.3,16.4,11.3,23.4h14.7c-4.8-7-8.6-14.9-10.8-23.4H552.4z"/>
		<path class="st0" d="M660.4,85.8h36.4c0.6-3.8,0.9-7.7,0.9-11.7s-0.3-7.9-0.9-11.7h-36.4c1.2,3.7,1.8,7.6,1.8,11.7
			S661.6,82.1,660.4,85.8z"/>
		<path class="st0" d="M565.9,62.4h-15.3c-0.6,3.8-0.9,7.7-0.9,11.7s0.3,7.9,0.9,11.7h15.3c-0.6-3.8-0.9-7.6-0.9-11.5
			C564.9,70.3,565.3,66.3,565.9,62.4z"/>
		<path class="st0" d="M676.6,22.3C663.1,8.6,644.4,0.1,623.7,0.1c-0.3,0-0.7,0-1,0c1.3,7.4,2.3,14.8,3.1,22.2H676.6z"/>
		<path class="st0" d="M622.4,0.1c-20.2,0.4-38.4,8.8-51.5,22.2h14.5C595.1,11.7,607.9,3.8,622.4,0.1z"/>
		<path class="st0" d="M563.8,30.7c-5.1,7-9,14.9-11.3,23.4h15.3c2.3-8.5,6.1-16.4,11-23.4H563.8z"/>
		<path class="st0" d="M656.6,54H695c-2.4-8.5-6.3-16.4-11.3-23.4h-56.9c0.2,1.7,0.3,3.4,0.4,5.1C639.6,36.9,650.4,43.9,656.6,54z"
			/>
		<path class="st0" d="M621,148.1c-14-3.9-26.4-11.7-35.9-22.1h-14.2c13.4,13.7,32.2,22.2,52.9,22.2c20.7,0,39.4-8.5,52.9-22.2
			h-51.9C623.6,133.4,622.4,140.8,621,148.1z"/>
		<path class="st1" d="M622.7,0c-0.1,0-0.2,0.1-0.4,0.1C622.5,0.1,622.6,0.1,622.7,0C622.7,0.1,622.7,0,622.7,0z"/>
		<path class="st2" d="M623.7,112.6c-13.9,0-26.1-7.4-32.9-18.4h-23.3c2.3,8.5,6,16.3,10.8,23.4h47.3c0.2-1.7,0.4-3.4,0.6-5.1
			C625.4,112.6,624.6,112.6,623.7,112.6z"/>
		<path class="st2" d="M587,62.4h-21.1c-0.6,3.9-1,7.8-1,11.8c0,3.9,0.3,7.8,0.9,11.5H587c-1.2-3.7-1.8-7.6-1.8-11.7
			S585.9,66.1,587,62.4z"/>
		<path class="st2" d="M585.3,22.3h40.6c-0.9-7.4-1.9-14.8-3.1-22.2c-0.1,0-0.3,0-0.4,0C607.9,3.8,595.1,11.7,585.3,22.3z"/>
		<path class="st2" d="M623.7,35.6c1.2,0,2.3,0.1,3.5,0.2c-0.1-1.7-0.3-3.4-0.4-5.1h-48.1c-4.9,7-8.6,14.9-11,23.4h23.2
			C597.6,43,609.8,35.6,623.7,35.6z"/>
		<path class="st2" d="M621,148.1c1.4-7.3,2.6-14.7,3.7-22.1h-39.6C594.6,136.4,607,144.2,621,148.1z"/>
	</g>
	<g>
		<path class="st3" d="M625.5,58.8v13.8h14.5c-0.1-5-0.9-9.7-2.2-13.8H625.5z"/>
		<path class="st3" d="M625.5,75.6v13.8h12.3c1.3-4.1,2.1-8.8,2.2-13.8H625.5z"/>
		<path class="st3" d="M622.5,89.5V75.6H608c0.1,5,0.9,9.7,2.2,13.8H622.5z"/>
		<path class="st3" d="M622.5,104.7V92.5h-11.3C613.9,99.2,618,103.8,622.5,104.7z"/>
		<path class="st3" d="M622.5,72.6V58.8h-12.3c-1.3,4.1-2.1,8.8-2.2,13.8H622.5z"/>
		<path class="st3" d="M640.1,92.5c-1.6,4.4-3.8,8.1-6.3,10.8c1.6-0.5,3.2-1.2,4.6-2c3.9-2.2,7.3-5.2,10-8.8H640.1z"/>
		<path class="st3" d="M622.5,55.8V43.6c0,0,0,0,0,0c-4.5,0.9-8.6,5.5-11.2,12.2H622.5z"/>
		<path class="st3" d="M625.5,92.5v12.2c4.5-0.8,8.6-5.5,11.3-12.2H625.5z"/>
		<path class="st3" d="M614.3,103.2c-2.6-2.7-4.7-6.3-6.3-10.8h-8.5C603.1,97.4,608.3,101.2,614.3,103.2z"/>
		<path class="st3" d="M607,89.5c-1.2-4.2-1.9-8.8-2-13.8h-11.6c0.2,5,1.7,9.7,4.1,13.8H607z"/>
		<path class="st3" d="M643.1,75.6c-0.1,5-0.8,9.7-2,13.8h9.2c2.3-4.1,3.8-8.8,4-13.8H643.1z"/>
		<path class="st3" d="M641.1,58.8c1.2,4.2,1.9,8.8,2,13.8h11.2c-0.3-5-1.8-9.7-4.2-13.8H641.1z"/>
		<path class="st3" d="M625.9,43.7c-0.1,0-0.2,0-0.3,0v12.2h11.3C634.2,49.3,630.3,44.7,625.9,43.7z"/>
		<path class="st3" d="M634.2,45.4c2.4,2.6,4.4,6.2,5.9,10.4h8C644.6,51.1,639.8,47.5,634.2,45.4z"/>
		<path class="st3" d="M599.4,55.8h8.5c1.6-4.4,3.8-8.1,6.3-10.8C608.3,47,603.1,50.8,599.4,55.8z"/>
		<path class="st3" d="M605,72.6c0.1-5,0.8-9.7,2-13.8h-9.5c-2.4,4.1-3.8,8.8-4.1,13.8H605z"/>
	</g>
	<g>
		<path class="st0" d="M0,77v-0.4C0,36.8,30,4.2,73,4.2c26.4,0,42.2,8.8,55.2,21.6l-19.6,22.6c-10.8-9.8-21.8-15.8-35.8-15.8
			c-23.6,0-40.6,19.6-40.6,43.6v0.4c0,24,16.6,44,40.6,44c16,0,25.8-6.4,36.8-16.4l19.6,19.8c-14.4,15.4-30.4,25-57.4,25
			C30.6,149,0,117.2,0,77z"/>
		<path class="st0" d="M188.8,5.6h28.4l60,141H245l-12.8-31.4H173l-12.8,31.4h-31.4L188.8,5.6z M221.2,88l-18.6-45.4L184,88H221.2z"
			/>
		<path class="st0" d="M283.8,6.6h64c17.8,0,31.6,5,40.8,14.2c7.8,7.8,12,18.8,12,32v0.4c0,22.6-12.2,36.8-30,43.4l34.2,50h-36
			l-30-44.8h-24.2v44.8h-30.8V6.6z M345.8,74.6c15,0,23.6-8,23.6-19.8v-0.4c0-13.2-9.2-20-24.2-20h-30.6v40.2H345.8z"/>
		<path class="st0" d="M407.2,77v-0.4c0-39.8,31-72.4,73.4-72.4c25.2,0,40.4,6.8,55,19.2l-19.4,23.4c-10.8-9-20.4-14.2-36.6-14.2
			c-22.4,0-40.2,19.8-40.2,43.6v0.4c0,25.6,17.6,44.4,42.4,44.4c11.2,0,21.2-2.8,29-8.4v-20h-31V66h60.8v60.8
			C526.2,139,506.4,149,480.8,149C437.2,149,407.2,118.4,407.2,77z"/>
	</g>
</g>
</svg>
